<svg width="3406" height="1205" viewBox="0 0 3406 1205" fill="none" xmlns="http://www.w3.org/2000/svg">
<path d="M1180 985C1133.33 985 1091.33 974.333 1054 953C1016.67 931 987.333 900.333 966 861C944.667 821 934 774.667 934 722C934 668 944.667 621.333 966 582C988 542 1017.67 511.333 1055 490C1093 468 1135.33 457 1182 457C1230 457 1272.33 468 1309 490C1346.33 511.333 1375.67 542 1397 582C1419 621.333 1430 667.667 1430 721C1430 774.333 1419 821 1397 861C1375 900.333 1345.33 931 1308 953C1270.67 974.333 1228 985 1180 985ZM1181 913C1209.67 913 1236.33 906 1261 892C1285.67 877.333 1305.67 855.667 1321 827C1336.33 798.333 1344 763 1344 721C1344 678.333 1336.33 643 1321 615C1306.33 586.333 1286.67 565 1262 551C1238 536.333 1211.33 529 1182 529C1154 529 1127.33 536.333 1102 551C1077.33 565 1057.33 586.333 1042 615C1027.33 643 1020 678.333 1020 721C1020 763 1027.33 798.333 1042 827C1057.33 855.667 1077 877.333 1101 892C1125.67 906 1152.33 913 1181 913Z" fill="url(#paint0_linear_420_103)"/>
<path d="M1916 985C1869.33 985 1827.33 974.333 1790 953C1752.67 931 1723.33 900.333 1702 861C1680.67 821 1670 774.667 1670 722C1670 668 1680.67 621.333 1702 582C1724 542 1753.67 511.333 1791 490C1829 468 1871.33 457 1918 457C1966 457 2008.33 468 2045 490C2082.33 511.333 2111.67 542 2133 582C2155 621.333 2166 667.667 2166 721C2166 774.333 2155 821 2133 861C2111 900.333 2081.33 931 2044 953C2006.67 974.333 1964 985 1916 985ZM1917 913C1945.67 913 1972.33 906 1997 892C2021.67 877.333 2041.67 855.667 2057 827C2072.33 798.333 2080 763 2080 721C2080 678.333 2072.33 643 2057 615C2042.33 586.333 2022.67 565 1998 551C1974 536.333 1947.33 529 1918 529C1890 529 1863.33 536.333 1838 551C1813.33 565 1793.33 586.333 1778 615C1763.33 643 1756 678.333 1756 721C1756 763 1763.33 798.333 1778 827C1793.33 855.667 1813 877.333 1837 892C1861.67 906 1888.33 913 1917 913Z" fill="url(#paint1_linear_420_103)"/>
<path fill-rule="evenodd" clip-rule="evenodd" d="M2417 1205C2371.67 1205 2331.33 1199 2296 1187C2261.33 1175.67 2234.33 1158 2215 1134C2195.67 1110 2186 1080.33 2186 1045C2186 1029.67 2189 1013.33 2195 996C2201.67 978.667 2212.67 961.667 2228 945C2232.85 939.951 2238.28 935.054 2244.29 930.31C2248.45 927.026 2250.53 925.383 2251.01 923.835C2251.45 922.388 2251.32 921.105 2250.58 919.781C2249.8 918.365 2247.44 917.199 2242.74 914.867C2235.11 911.089 2228.2 907.134 2222 903C2214.11 897.431 2206.7 891.7 2199.78 885.807C2199.48 885.546 2200.25 886.2 2200.17 886.136C2194.69 881.403 2191.05 873.522 2191 866.283C2191 866.185 2191 866.287 2191 866.247C2191 866.061 2191 865.968 2191 865.878C2191.05 858.927 2193.82 852.272 2198.73 847.349C2198.8 847.285 2198.86 847.22 2198.99 847.089L2270.49 776.327C2272.74 774.102 2273.87 772.989 2274.25 771.772C2274.61 770.664 2274.59 769.586 2274.21 768.488C2273.79 767.28 2272.58 766.143 2270.17 763.868C2258.6 752.985 2248.88 740.696 2241 727C2225.67 699.667 2218 669.333 2218 636C2218 602.667 2225.67 572.667 2241 546C2257 519.333 2279.67 498 2309 482C2338.33 465.333 2374 457 2416 457C2444.54 457 2470.16 460.849 2492.85 468.544C2493.36 468.719 2493.62 468.807 2493.87 468.865C2494.09 468.917 2494.31 468.952 2494.54 468.975C2494.79 469 2495.05 469 2495.58 469H2646.8C2652.1 469 2654.74 469 2656.95 469.377C2668.04 471.267 2676.73 479.956 2678.62 491.048C2679 493.258 2679 495.904 2679 501.196C2679 506.282 2679 508.824 2678.64 510.974C2676.86 521.743 2668.66 530.317 2657.98 532.573C2655.85 533.023 2653.31 533.136 2648.23 533.36L2595.43 535.694C2593.3 535.788 2592.24 535.835 2591.62 536.024C2588.81 536.876 2587.33 539.568 2588.11 542.397C2588.29 543.026 2588.86 544.018 2590 546C2605.33 572.667 2613 602.667 2613 636C2613 669.333 2605.33 699.667 2590 727C2574.67 753.667 2552.33 775 2523 791C2493.67 807 2458 815 2416 815C2389.71 815 2365.78 811.867 2344.19 805.6C2342.47 805.099 2341.61 804.849 2340.81 804.866C2340.09 804.882 2339.42 805.034 2338.76 805.334C2338.04 805.666 2337.39 806.245 2336.11 807.403L2296.17 843.345C2293.6 845.659 2292.32 846.815 2291.91 848.278C2291.58 849.493 2291.74 850.987 2292.33 852.101C2293.04 853.442 2294.46 854.244 2297.29 855.847C2304.77 860.081 2314.35 864.751 2322 867C2333.33 870.333 2349 873.333 2369 876C2389.67 878.667 2416.67 881.333 2450 884C2496 887.333 2532.67 895.333 2560 908C2588 920.667 2608 937.667 2620 959C2632.67 980.333 2639 1005.67 2639 1035C2639 1063.67 2631 1090.67 2615 1116C2599.67 1142 2575.67 1163.33 2543 1180C2510.33 1196.67 2468.33 1205 2417 1205ZM2268 1037C2268 1021 2273.33 1003.33 2284 984C2292.57 969.004 2309.1 955.298 2333.59 942.883C2334.45 942.446 2334.88 942.227 2335.36 942.091C2335.77 941.971 2336.22 941.902 2336.65 941.89C2337.14 941.877 2337.64 941.958 2338.64 942.12C2364.08 946.257 2394.87 949.55 2431 952C2479.67 954.667 2512.67 963.667 2530 979C2547.33 995 2556 1014.67 2556 1038C2556 1058 2550.33 1075.33 2539 1090C2527.67 1104.67 2511.67 1116 2491 1124C2470.33 1132 2445.67 1136 2417 1136C2388.33 1136 2362.67 1132.33 2340 1125C2317.33 1117.67 2299.67 1106.67 2287 1092C2274.33 1077.33 2268 1059 2268 1037ZM2501 718C2480.33 736.667 2452 746 2416 746C2380 746 2351.33 736.667 2330 718C2308.67 699.333 2298 672 2298 636C2298 600.667 2308.67 573.667 2330 555C2352 536.333 2380.67 527 2416 527C2452 527 2480.33 536.333 2501 555C2521.67 573.667 2532 600.667 2532 636C2532 672 2521.67 699.333 2501 718Z" fill="url(#paint2_linear_420_103)"/>
<path fill-rule="evenodd" clip-rule="evenodd" d="M242 985C194.667 985 152.667 974 116 952C80 930 51.6667 899.333 31 860C10.3333 820 0 773.667 0 721C0 667.667 10 621.333 30 582C50.6667 542.667 79.3333 512 116 490C153.333 468 196 457 244 457C293.333 457 335 468 369 490C403.667 512 430 541 448 577C466.667 612.333 476 651.333 476 694V715C476 715.902 476 713.648 475.998 713.796C475.846 727.481 463.481 739.846 449.796 739.998C449.648 740 450.193 740 449.975 740H90.9719C87.9516 740 86.4415 740 85.2896 740.618C84.2955 741.152 83.4653 742.043 83.0037 743.073C82.469 744.266 82.5735 745.734 82.7827 748.669C85.0266 780.169 92.0988 807.28 104 830C119.333 858 139 879 163 893C187.667 907 214 914 242 914C277.333 914 306.333 906.333 329 891C347.061 878.615 361.128 863.035 371.201 844.259C374.284 838.51 375.826 835.636 377.434 834.91C378.923 834.238 380.355 834.255 381.827 834.963C383.417 835.727 384.798 838.454 387.559 843.909L407.409 883.126C411.91 892.018 414.161 896.464 414.573 901.676C414.899 905.792 413.887 911.331 412.126 915.066C409.897 919.795 406.852 922.58 400.761 928.148C384.635 942.894 366.048 955.178 345 965C315.667 978.333 281.333 985 242 985ZM348 567C374.84 591.343 389.991 624.452 393.455 666.327C393.695 669.231 393.816 670.684 393.286 671.889C392.833 672.923 391.992 673.836 390.999 674.374C389.841 675 388.331 675 385.31 675H92.1031C88.9549 675 87.3808 675 86.1967 674.337C85.1828 673.769 84.3381 672.805 83.9077 671.726C83.4051 670.465 83.6038 668.96 84.0012 665.949C87.0905 642.544 93.7568 622.227 104 605C118.667 579.667 138 560.667 162 548C186.667 534.667 213.333 528 242 528C284.667 528 320 541 348 567Z" fill="url(#paint3_linear_420_103)"/>
<path d="M754 985C706.667 985 664 974 626 952C588.667 930 559.333 899.333 538 860C516.667 820 506 774 506 722C506 668.667 516.667 622.333 538 583C559.333 543.667 588.667 513 626 491C664 468.333 706.667 457 754 457C804.996 457 848.768 468.317 885.316 490.952C891.166 494.575 894.091 496.386 896.882 499.787C899.101 502.491 901.223 506.69 902.083 510.08C903.166 514.344 902.833 518.472 902.167 526.727L898.578 571.23C897.188 588.472 896.492 597.093 895.126 598.448C893.683 599.88 892.62 600.219 890.615 599.887C888.716 599.572 882.424 592.067 869.842 577.058C862.879 568.751 854.598 561.399 845 555C819 537.667 788.333 529 753 529C724.333 529 697.667 536.333 673 551C648.333 565 628.667 586.333 614 615C599.333 643.667 592 679 592 721C592 752.333 596.333 780.333 605 805C613.667 829 625.333 849 640 865C654.667 881 671.667 893.333 691 902C711 910 731.667 914 753 914C777 914 798.667 910.333 818 903C837.333 895 853.667 883.333 867 868C868.079 866.759 869.13 865.5 870.153 864.224C882.249 849.128 888.297 841.579 890.218 841.235C892.215 840.878 893.35 841.231 894.793 842.658C896.18 844.031 896.806 852.667 898.06 869.94L901.365 915.478C901.96 923.666 902.257 927.76 901.163 931.979C900.293 935.337 898.182 939.484 895.978 942.164C893.209 945.53 890.309 947.334 884.508 950.943C848.01 973.648 804.507 985 754 985Z" fill="url(#paint4_linear_420_103)"/>
<path d="M2741 973C2726.54 973 2719.3 973 2713.75 970.253C2708.54 967.676 2704.32 963.459 2701.75 958.25C2699 952.696 2699 945.464 2699 931V315C2699 300.536 2699 293.304 2701.75 287.75C2704.32 282.541 2708.54 278.324 2713.75 275.747C2719.3 273 2726.54 273 2741 273C2755.46 273 2762.7 273 2768.25 275.747C2773.46 278.324 2777.68 282.541 2780.25 287.75C2783 293.304 2783 300.536 2783 315V931C2783 945.464 2783 952.696 2780.25 958.25C2777.68 963.459 2773.46 967.676 2768.25 970.253C2762.7 973 2755.46 973 2741 973Z" fill="url(#paint5_linear_420_103)"/>
<path fill-rule="evenodd" clip-rule="evenodd" d="M2872.05 973C2853.21 973 2843.78 973 2837.55 969.33C2830.92 965.418 2826.31 958.811 2824.94 951.231C2823.65 944.118 2826.9 935.275 2833.42 917.59L3060.78 300.737C3064.46 290.741 3066.3 285.743 3069.53 282.058C3072.37 278.803 3075.97 276.293 3080.01 274.749C3084.58 273 3089.91 273 3100.56 273H3130.4C3141.07 273 3146.4 273 3150.98 274.752C3155.02 276.3 3158.62 278.814 3161.47 282.075C3164.69 285.767 3166.53 290.774 3170.2 300.787L3396.44 916.988C3403.14 935.251 3406.49 944.383 3405.02 951.711C3403.57 958.942 3399.18 965.241 3392.89 969.095C3386.52 973 3376.79 973 3357.33 973C3347.09 973 3341.96 973 3337.55 971.386C3333.17 969.781 3329.29 967.048 3326.3 963.463C3323.29 959.854 3321.57 955.031 3318.11 945.384L3265.54 798.516C3264.83 796.529 3264.47 795.536 3263.84 794.803C3263.28 794.156 3262.57 793.656 3261.77 793.348C3260.87 793 3259.81 793 3257.7 793H2971.59C2969.48 793 2968.43 793 2967.53 793.348C2966.73 793.655 2966.02 794.153 2965.46 794.799C2964.83 795.53 2964.47 796.522 2963.76 798.504L2910.8 945.762C2907.44 955.081 2905.77 959.74 2902.9 963.256C2899.82 967.023 2895.77 969.871 2891.19 971.49C2886.91 973 2881.96 973 2872.05 973ZM3107.15 399.819C3109.57 393.107 3110.77 389.751 3112.54 388.808C3114.07 387.992 3115.91 387.993 3117.44 388.812C3119.21 389.757 3120.41 393.115 3122.81 399.83L3235.24 713.876C3236.58 717.621 3237.25 719.493 3236.9 720.989C3236.59 722.297 3235.79 723.436 3234.66 724.166C3233.37 725 3231.38 725 3227.4 725H3002.03C2998.05 725 2996.06 725 2994.77 724.164C2993.64 723.433 2992.84 722.293 2992.53 720.983C2992.18 719.487 2992.85 717.613 2994.2 713.864L3107.15 399.819Z" fill="url(#paint6_linear_420_103)"/>
<path d="M1606 973C1576 973 1550 968.333 1528 959C1506 949.667 1489 934 1477 912C1465.67 889.333 1460 859 1460 821V295C1460 289.083 1460 284.377 1460.19 280.5C1476.03 210.292 1520.35 97.9761 1540.27 78.0864C1520.35 97.9761 1457.24 202.215 1431.35 255.579C1409.63 239.836 1392.01 191.686 1400.57 141.287C1406.86 104.224 1432.92 73.4698 1465.04 53.8198C1497.17 34.1698 1547.62 21.5765 1580.72 0C1588.13 45.5567 1609.59 86.395 1611.18 117.881C1614.01 173.876 1601.17 205.216 1572.46 240.28C1563.98 250.637 1552.87 259.656 1540.78 266.848C1540.95 267.145 1541.1 267.446 1541.25 267.75C1544 273.304 1544 280.536 1544 295V821C1544 852.333 1550.33 873.667 1563 885C1571.83 892.432 1585.34 897.274 1603.55 899.528C1618.08 901.326 1630 912.865 1630 927.5V949C1630 962.255 1619.25 973 1606 973Z" fill="url(#paint7_linear_420_103)"/>
<defs>
<linearGradient id="paint0_linear_420_103" x1="1807.68" y1="0" x2="1807.68" y2="1205" gradientUnits="userSpaceOnUse">
<stop stop-color="#42BE8D"/>
<stop offset="1" stop-color="#2E8D6F"/>
</linearGradient>
<linearGradient id="paint1_linear_420_103" x1="1807.68" y1="0" x2="1807.68" y2="1205" gradientUnits="userSpaceOnUse">
<stop stop-color="#42BE8D"/>
<stop offset="1" stop-color="#2E8D6F"/>
</linearGradient>
<linearGradient id="paint2_linear_420_103" x1="1807.68" y1="0" x2="1807.68" y2="1205" gradientUnits="userSpaceOnUse">
<stop stop-color="#42BE8D"/>
<stop offset="1" stop-color="#2E8D6F"/>
</linearGradient>
<linearGradient id="paint3_linear_420_103" x1="1807.68" y1="0" x2="1807.68" y2="1205" gradientUnits="userSpaceOnUse">
<stop stop-color="#42BE8D"/>
<stop offset="1" stop-color="#2E8D6F"/>
</linearGradient>
<linearGradient id="paint4_linear_420_103" x1="1807.68" y1="0" x2="1807.68" y2="1205" gradientUnits="userSpaceOnUse">
<stop stop-color="#42BE8D"/>
<stop offset="1" stop-color="#2E8D6F"/>
</linearGradient>
<linearGradient id="paint5_linear_420_103" x1="1807.68" y1="0" x2="1807.68" y2="1205" gradientUnits="userSpaceOnUse">
<stop stop-color="#42BE8D"/>
<stop offset="1" stop-color="#2E8D6F"/>
</linearGradient>
<linearGradient id="paint6_linear_420_103" x1="1807.68" y1="0" x2="1807.68" y2="1205" gradientUnits="userSpaceOnUse">
<stop stop-color="#42BE8D"/>
<stop offset="1" stop-color="#2E8D6F"/>
</linearGradient>
<linearGradient id="paint7_linear_420_103" x1="1807.68" y1="0" x2="1807.68" y2="1205" gradientUnits="userSpaceOnUse">
<stop stop-color="#42BE8D"/>
<stop offset="1" stop-color="#2E8D6F"/>
</linearGradient>
</defs>
</svg>
